<?xml version="1.0" encoding="iso-8859-1"?>
<!-- Generator: Adobe Illustrator 19.0.0, SVG Export Plug-In . SVG Version: 6.00 Build 0)  -->
<svg version="1.1" id="Capa_1" xmlns="http://www.w3.org/2000/svg" xmlns:xlink="http://www.w3.org/1999/xlink" x="0px" y="0px"
	 viewBox="0 0 413.009 413.009" style="enable-background:new 0 0 413.009 413.009;" xml:space="preserve">
<path style="fill:#EBF0F3;" d="M389.063,360.845L256.359,171.451l2.278-130.547c9.396-1.414,16.683-9.417,16.854-19.235
	c0.191-10.947-8.527-19.976-19.474-20.167l-85.89-1.499c-10.946-0.191-19.975,8.528-20.166,19.475
	c-0.172,9.818,6.831,18.071,16.173,19.811l-2.279,130.547L24.621,354.484c-16.308,21.626-1.197,52.621,25.885,53.093l310.835,5.426
	C388.422,413.476,404.606,383.028,389.063,360.845z"/>
<path style="fill:#E56353;" d="M294.994,239.571l-172.131-3.004L30.568,358.963c-5.935,7.876-6.902,17.875-2.576,26.745
	c4.319,8.862,12.786,14.254,22.646,14.427l310.833,5.425c9.861,0.173,18.51-4.921,23.136-13.635
	c4.633-8.706,4.015-18.733-1.641-26.811L294.994,239.571z"/>
<g>
	<polygon style="opacity:0.24;fill:#FFFFFF;enable-background:new    ;" points="63.527,350.335 199.169,170.451 201.429,41.002 
		184.655,40.709 182.395,170.159 46.754,350.042 	"/>
	<path style="fill:#FFFFFF;" d="M233.261,255.014c6.725,11.509-5.376,23.196-16.643,16.075c-1.003-0.633-1.874-1.536-2.473-2.56
		c-6.719-11.505,5.375-23.189,16.642-16.075C231.79,253.087,232.662,253.99,233.261,255.014z"/>
	<path style="fill:#FFFFFF;" d="M216.689,294.535c6.262,10.784-5.058,21.717-15.62,15.085c-0.97-0.609-1.809-1.479-2.383-2.469
		c-6.255-10.784,5.061-21.71,15.619-15.084C215.275,292.676,216.114,293.545,216.689,294.535z"/>
	<path style="fill:#FFFFFF;" d="M271.121,329.936c5.083,8.84-4.171,17.777-12.829,12.391c-0.828-0.516-1.552-1.266-2.037-2.112
		c-5.066-8.836,4.172-17.76,12.826-12.389C269.91,328.34,270.634,329.09,271.121,329.936z"/>
	<path style="fill:#FFFFFF;" d="M204.631,369.285c1.684,3.323-1.679,6.567-4.938,4.765c-0.468-0.259-0.883-0.688-1.125-1.165
		c-1.69-3.323,1.677-6.573,4.939-4.766C203.975,368.378,204.389,368.807,204.631,369.285z"/>
	<path style="fill:#FFFFFF;" d="M292.612,378.99c3.774,6.709-3.206,13.45-9.78,9.444c-0.681-0.415-1.281-1.036-1.672-1.732
		c-3.774-6.71,3.206-13.45,9.78-9.444C291.621,377.673,292.221,378.294,292.612,378.99z"/>
	<path style="fill:#FFFFFF;" d="M138.808,357.461c1.812,3.57-1.8,7.058-5.304,5.125c-0.504-0.277-0.949-0.738-1.211-1.251
		c-1.821-3.571,1.798-7.069,5.306-5.128C138.103,356.487,138.548,356.948,138.808,357.461z"/>
</g>
<g>
</g>
<g>
</g>
<g>
</g>
<g>
</g>
<g>
</g>
<g>
</g>
<g>
</g>
<g>
</g>
<g>
</g>
<g>
</g>
<g>
</g>
<g>
</g>
<g>
</g>
<g>
</g>
<g>
</g>
</svg>
