<?xml version="1.0" encoding="iso-8859-1"?>
<!-- Generator: Adobe Illustrator 19.0.0, SVG Export Plug-In . SVG Version: 6.00 Build 0)  -->
<svg version="1.1" id="Capa_1" xmlns="http://www.w3.org/2000/svg" xmlns:xlink="http://www.w3.org/1999/xlink" x="0px" y="0px"
	 viewBox="0 0 496 496" style="enable-background:new 0 0 496 496;" xml:space="preserve">
<polygon style="fill:#FCD770;" points="409.528,40 481.528,40 465.528,72 481.528,104 409.528,104 "/>
<path style="fill:#ECECEC;" d="M425.528,424V8h-384c-17.672,0-32,14.328-32,32v416L425.528,424z"/>
<path style="fill:#FB5968;" d="M73.528,456h-64V40c0-17.672,14.328-32,32-32h32V456z"/>
<path style="fill:#ECECEC;" d="M425.528,424h-16c-17.672,0-32,14.328-32,32l0,0c0,17.672,14.328,32,32,32h16h-384
	c-17.672,0-32-14.328-32-32l0,0c0-17.672,14.328-32,32-32H425.528z"/>
<rect x="105.528" y="168" style="fill:#FCD770;" width="288" height="128"/>
<rect x="105.528" y="280" style="fill:#FFC729;" width="288" height="16"/>
<path d="M121.88,141.648l15.288,4.704L147.744,112h43.568l10.568,34.352l15.288-4.704L208.048,112h9.48V96h-14.4L183.44,32h-27.824
	l-19.688,64h-14.4v16h9.48L121.88,141.648z M167.44,48h4.176l14.768,48h-33.72L167.44,48z"/>
<path d="M305.528,112c0-9.544-4.2-18.136-10.856-24c6.656-5.864,10.856-14.456,10.856-24c0-17.648-14.352-32-32-32h-32v112h32
	C291.176,144,305.528,129.648,305.528,112z M257.528,48h16c8.824,0,16,7.176,16,16s-7.176,16-16,16h-16V48z M257.528,96h16
	c8.824,0,16,7.176,16,16s-7.176,16-16,16h-16V96z"/>
<path d="M377.528,144v-16c-22.056,0-40-17.944-40-40s17.944-40,40-40V32c-30.88,0-56,25.12-56,56S346.648,144,377.528,144z"/>
<path d="M97.528,304h304V160h-304V304z M113.528,176h272v112h-272V176z"/>
<rect x="105.528" y="320" width="288" height="16"/>
<rect x="105.528" y="352" width="288" height="16"/>
<rect x="377.528" y="384" width="16" height="16"/>
<rect x="105.528" y="384" width="256" height="16"/>
<path d="M474.472,72l20-40h-60.944V0h-392c-22.056,0-40,17.944-40,40v416c0,22.056,17.944,40,40,40h368h24v-16h-24
	c-13.232,0-24-10.768-24-24s10.768-24,24-24h16h8V112h60.944L474.472,72z M377.736,480H41.528c-13.232,0-24-10.768-24-24
	s10.768-24,24-24h336.208c-5.08,6.704-8.208,14.96-8.208,24S372.656,473.296,377.736,480z M409.528,416h-328v-32h-16v32h-24
	c-9,0-17.312,2.992-24,8.016V40c0-13.232,10.768-24,24-24h24v352h16V16h336v400H409.528z M468.584,96h-35.056V48h35.056l-12,24
	L468.584,96z"/>
<rect x="65.528" y="448" width="288" height="16"/>
<rect x="33.528" y="448" width="16" height="16"/>
<g>
</g>
<g>
</g>
<g>
</g>
<g>
</g>
<g>
</g>
<g>
</g>
<g>
</g>
<g>
</g>
<g>
</g>
<g>
</g>
<g>
</g>
<g>
</g>
<g>
</g>
<g>
</g>
<g>
</g>
</svg>
