<svg id="Layer_1" enable-background="new 0 0 512 512" height="512" viewBox="0 0 512 512" width="512" xmlns="http://www.w3.org/2000/svg"><g id="XMLID_1417_"><g id="XMLID_285_"><g id="XMLID_286_"><g id="XMLID_287_"><g id="XMLID_367_"><g id="XMLID_368_"><g id="XMLID_369_"><g id="XMLID_370_"><g id="XMLID_371_"><g id="XMLID_372_"><g id="XMLID_373_"><g id="XMLID_374_"><g id="XMLID_375_"><g id="XMLID_376_"><g id="XMLID_377_"><circle id="XMLID_378_" cx="256" cy="256" fill="#00efd1" r="256"/></g></g></g></g></g></g></g></g></g></g></g></g></g></g><path id="XMLID_952_" d="m497.523 170.98-100.612-100.612-280.131 374.385 68.91 57.468c22.341 6.367 45.927 9.779 70.31 9.779 135.364 0 246.174-105.066 255.367-238.095.289-7.863.473-15.661.564-23.361-.583-27.843-5.616-54.588-14.408-79.564z" fill="#00af95"/><g id="XMLID_1322_"><g id="XMLID_409_"><path id="XMLID_1255_" d="m371.5 455.333h-231c-17.6 0-32-14.4-32-32v-333.583c0-17.6 14.4-32 32-32h231c17.6 0 32 14.4 32 32v333.583c0 17.6-14.4 32-32 32z" fill="#254b70"/><path id="XMLID_412_" d="m270.567 408.924h-29.135c-6.549 0-11.859-5.309-11.859-11.859v-29.135c0-6.549 5.309-11.859 11.859-11.859h29.135c6.549 0 11.859 5.309 11.859 11.859v29.135c0 6.55-5.309 11.859-11.859 11.859z" fill="#f4f1f1"/><path id="XMLID_1387_" d="m403.5 89.75v333.583c0 17.6-14.4 32-32 32h-115.5v-397.583h115.5c17.6 0 32 14.4 32 32z" fill="#173751"/><g id="XMLID_415_"><g id="XMLID_54_"><path id="XMLID_1250_" d="m186.078 242.518h-29.135c-6.549 0-11.859-5.309-11.859-11.859v-29.135c0-6.549 5.309-11.859 11.859-11.859h29.135c6.549 0 11.859 5.309 11.859 11.859v29.135c0 6.55-5.31 11.859-11.859 11.859z" fill="#f4f1f1"/><path id="XMLID_1249_" d="m270.567 242.518h-29.135c-6.549 0-11.859-5.309-11.859-11.859v-29.135c0-6.549 5.309-11.859 11.859-11.859h29.135c6.549 0 11.859 5.309 11.859 11.859v29.135c0 6.55-5.309 11.859-11.859 11.859z" fill="#f4f1f1"/><path id="XMLID_361_" d="m355.057 242.518h-29.135c-6.549 0-11.859-5.309-11.859-11.859v-29.135c0-6.549 5.309-11.859 11.859-11.859h29.135c6.549 0 11.859 5.309 11.859 11.859v29.135c-.001 6.55-5.31 11.859-11.859 11.859z" fill="#e7dfdd"/></g><g id="XMLID_388_"><path id="XMLID_391_" d="m186.078 325.721h-29.135c-6.549 0-11.859-5.309-11.859-11.859v-29.135c0-6.549 5.309-11.859 11.859-11.859h29.135c6.549 0 11.859 5.309 11.859 11.859v29.135c0 6.55-5.31 11.859-11.859 11.859z" fill="#f4f1f1"/><path id="XMLID_390_" d="m270.567 325.721h-29.135c-6.549 0-11.859-5.309-11.859-11.859v-29.135c0-6.549 5.309-11.859 11.859-11.859h29.135c6.549 0 11.859 5.309 11.859 11.859v29.135c0 6.55-5.309 11.859-11.859 11.859z" fill="#f4f1f1"/><g fill="#e7dfdd"><path id="XMLID_867_" d="m282.43 367.93v29.14c0 6.54-5.31 11.85-11.86 11.85h-14.57v-52.85h14.57c6.55 0 11.86 5.31 11.86 11.86z"/><path id="XMLID_866_" d="m282.43 201.52v29.14c0 6.55-5.31 11.86-11.86 11.86h-14.57v-52.85h14.57c6.55 0 11.86 5.31 11.86 11.85z"/><path id="XMLID_865_" d="m282.43 284.73v29.13c0 6.55-5.31 11.86-11.86 11.86h-14.57v-52.85h14.57c6.55 0 11.86 5.31 11.86 11.86z"/><path id="XMLID_389_" d="m355.057 325.721h-29.135c-6.549 0-11.859-5.309-11.859-11.859v-29.135c0-6.549 5.309-11.859 11.859-11.859h29.135c6.549 0 11.859 5.309 11.859 11.859v29.135c-.001 6.55-5.31 11.859-11.859 11.859z"/></g></g><g id="XMLID_410_"><path id="XMLID_413_" d="m186.078 408.924h-29.135c-6.549 0-11.859-5.309-11.859-11.859v-29.135c0-6.549 5.309-11.859 11.859-11.859h29.135c6.549 0 11.859 5.309 11.859 11.859v29.135c0 6.55-5.31 11.859-11.859 11.859z" fill="#f4f1f1"/><path id="XMLID_411_" d="m355.057 408.924h-29.135c-6.549 0-11.859-5.309-11.859-11.859v-29.135c0-6.549 5.309-11.859 11.859-11.859h29.135c6.549 0 11.859 5.309 11.859 11.859v29.135c-.001 6.55-5.31 11.859-11.859 11.859z" fill="#d8462a"/></g></g></g><g id="XMLID_1321_"><path id="XMLID_1185_" d="m139.5 97.439h233v61.56h-233z" fill="#ffd55c"/><path id="XMLID_1385_" d="m256 97.44h116.5v61.56h-116.5z" fill="#f4bc3d"/></g></g></g></svg>