<svg id="Layer_3" enable-background="new 0 0 64 64" height="512" viewBox="0 0 64 64" width="512" xmlns="http://www.w3.org/2000/svg"><g><circle cx="47" cy="47" fill="#c66b60" r="3"/><circle cx="17" cy="47" fill="#b4e05d" r="3"/><circle cx="47" cy="17" fill="#b4e05d" r="3"/><path d="m49.115 14.873c-.543-.539-1.29-.873-2.115-.873-1.657 0-3 1.343-3 3 0 .825.334 1.572.873 2.115 1.855-.888 3.355-2.387 4.242-4.242z" fill="#c8ec6c"/><circle cx="17" cy="17" fill="#c66b60" r="3"/><path d="m19.115 14.873c-.543-.539-1.29-.873-2.115-.873-1.657 0-3 1.343-3 3 0 .825.334 1.572.873 2.115 1.855-.888 3.355-2.387 4.242-4.242z" fill="#e47c6e"/><path d="m49.115 44.873c-.543-.539-1.29-.873-2.115-.873-1.657 0-3 1.343-3 3 0 .825.334 1.572.873 2.115 1.855-.888 3.355-2.387 4.242-4.242z" fill="#e47c6e"/><path d="m19.115 44.873c-.543-.539-1.29-.873-2.115-.873-1.657 0-3 1.343-3 3 0 .825.334 1.572.873 2.115 1.855-.888 3.355-2.387 4.242-4.242z" fill="#c8ec6c"/><circle cx="32" cy="32" fill="#f5ba5b" r="5"/><path d="m32 27c-2.761 0-5 2.239-5 5 0 1.671.828 3.142 2.088 4.05 2.736-1.963 4.843-4.735 5.981-7.97-.85-.667-1.906-1.08-3.069-1.08z" fill="#f8cf6a"/><path d="m63 32c0-3.595-4.896-6.272-11.814-7.948 3.706-6.076 5.275-11.431 2.734-13.973-2.543-2.541-7.898-.972-13.973 2.733-1.675-6.917-4.352-11.813-7.947-11.813s-6.272 4.897-7.948 11.814c-6.074-3.705-11.428-5.273-13.973-2.734-2.542 2.542-.972 7.897 2.734 13.973-6.917 1.676-11.814 4.353-11.814 7.948s4.896 6.271 11.814 7.947c-3.706 6.076-5.275 11.431-2.734 13.973.856.855 2.03 1.246 3.442 1.246 2.785 0 6.5-1.525 10.53-3.983 1.676 6.918 4.353 11.817 7.949 11.817 3.595 0 6.271-4.896 7.947-11.812.704.427 1.398.826 2.078 1.193 3.431 1.848 6.285 2.777 8.465 2.777 1.45 0 2.603-.411 3.429-1.237 2.542-2.542.973-7.897-2.734-13.973 6.918-1.677 11.815-4.354 11.815-7.948zm-20.026-18.62c3.104-1.671 5.724-2.541 7.515-2.541.892 0 1.578.215 2.017.654 1.569 1.569.327 6.15-3.389 12.099-2.377-.483-4.937-.859-7.586-1.123-.264-2.648-.64-5.206-1.122-7.582.87-.543 1.73-1.058 2.565-1.507zm-2.974 18.62c0 1.12-.019 2.216-.054 3.289-.736.785-1.497 1.575-2.29 2.368-.786.786-1.578 1.546-2.372 2.29-1.072.034-2.166.053-3.284.053s-2.213-.019-3.285-.054c-.795-.744-1.587-1.504-2.372-2.29-.785-.785-1.546-1.577-2.289-2.372-.035-1.072-.054-2.166-.054-3.284s.019-2.213.054-3.285c.744-.794 1.504-1.586 2.289-2.372.786-.786 1.578-1.546 2.372-2.29 1.072-.035 2.166-.054 3.284-.054s2.213.019 3.284.054c.795.744 1.587 1.504 2.372 2.29.793.793 1.554 1.583 2.29 2.368.036 1.073.055 2.169.055 3.289zm-.929-7.072c-.244-.244-.491-.486-.739-.728.461.03.918.062 1.369.098.036.451.068.907.098 1.368-.242-.246-.484-.494-.728-.738zm-2.966-2.842c-.839-.772-1.69-1.525-2.547-2.259 1.709-1.388 3.402-2.656 5.052-3.774.367 1.912.673 3.999.905 6.238-1.129-.087-2.267-.157-3.41-.205zm-3.08-.08c-.342-.004-.685-.007-1.026-.007s-.684.004-1.026.007c.342-.3.684-.592 1.026-.883.342.291.684.583 1.026.883zm-5.132.08c-1.143.048-2.281.117-3.409.205.231-2.239.538-4.326.905-6.238 1.65 1.118 3.343 2.386 5.052 3.774-.857.734-1.708 1.488-2.548 2.259zm-2.226 2.114c-.247.242-.495.484-.739.728s-.486.491-.727.738c.03-.461.062-.918.098-1.368.45-.036.907-.068 1.368-.098zm-3.58 3.693c-.772.839-1.525 1.691-2.259 2.548-1.388-1.709-2.656-3.402-3.774-5.052 1.912-.367 3.999-.673 6.238-.905-.088 1.128-.157 2.266-.205 3.409zm-.08 3.08c-.004.342-.007.685-.007 1.027s.004.684.007 1.026c-.301-.342-.592-.684-.884-1.026.292-.343.583-.685.884-1.027zm.08 5.133c.048 1.143.117 2.281.205 3.409-2.239-.231-4.326-.538-6.238-.905 1.118-1.651 2.386-3.344 3.774-5.052.733.857 1.487 1.709 2.259 2.548zm2.114 2.227c.242.247.484.494.727.738.249.249.501.484.751.729-.465-.03-.926-.063-1.38-.099-.036-.451-.068-.907-.098-1.368zm3.701 3.58c.845.779 1.691 1.531 2.539 2.259-1.708 1.388-3.401 2.656-5.052 3.774-.367-1.912-.673-3.999-.905-6.238 1.132.088 2.273.157 3.418.205zm3.072.08c.342.003.684.007 1.026.007.341 0 .683-.004 1.025-.007-.342.3-.684.592-1.026.883-.341-.292-.683-.583-1.025-.883zm5.126-.08c1.145-.048 2.285-.117 3.415-.205-.231 2.239-.538 4.326-.905 6.238-1.651-1.118-3.345-2.387-5.055-3.776.857-.734 1.706-1.486 2.545-2.257zm2.225-2.114c.248-.243.501-.483.746-.728.244-.244.486-.491.728-.739-.03.461-.062.918-.098 1.368-.453.037-.912.069-1.376.099zm3.588-3.694c.773-.84 1.527-1.692 2.262-2.551 1.421 1.75 2.679 3.442 3.772 5.055-1.912.367-3.999.674-6.239.905.087-1.127.157-2.266.205-3.409zm.079-3.072c.004-.345.008-.689.008-1.033s-.004-.689-.008-1.034c.305.348.59.689.883 1.034-.293.344-.577.685-.883 1.033zm-.079-5.139c-.048-1.143-.117-2.281-.205-3.41 2.239.232 4.327.538 6.239.905-1.093 1.613-2.351 3.306-3.772 5.055-.735-.858-1.49-1.71-2.262-2.55zm-9.913-24.895c2.22 0 4.588 4.105 6.167 10.947-2.025 1.341-4.104 2.887-6.168 4.576-2.063-1.689-4.142-3.235-6.167-4.575 1.579-6.843 3.947-10.948 6.168-10.948zm-18.62 18.026c-2.502-4.647-3.208-8.211-1.886-9.532.439-.439 1.125-.654 2.017-.654 1.792 0 4.412.87 7.515 2.541.834.449 1.695.964 2.567 1.508-.483 2.376-.858 4.934-1.122 7.582-2.648.264-5.206.64-7.582 1.123-.545-.872-1.06-1.733-1.509-2.568zm-10.381 10.975c0-2.221 4.105-4.589 10.947-6.168 1.341 2.025 2.887 4.104 4.576 6.167-1.689 2.063-3.235 4.142-4.576 6.168-6.842-1.579-10.947-3.947-10.947-6.167zm18.026 18.619c-4.648 2.503-8.209 3.208-9.532 1.886-1.321-1.321-.616-4.884 1.886-9.532.449-.834.964-1.695 1.507-2.566 2.376.483 4.935.858 7.582 1.123.264 2.647.64 5.206 1.122 7.581-.869.544-1.73 1.059-2.565 1.508zm10.975 10.381c-2.221 0-4.59-4.106-6.168-10.951 2.024-1.34 4.1-2.883 6.163-4.57 2.09 1.713 4.164 3.255 6.172 4.577-1.58 6.84-3.947 10.944-6.167 10.944zm20.505-8.495c-1.319 1.322-4.884.617-9.532-1.886-.834-.449-1.695-.964-2.566-1.507.483-2.376.858-4.934 1.122-7.582 2.649-.264 5.209-.641 7.586-1.124 3.717 5.949 4.96 10.531 3.39 12.099zm-2.452-14.338c-1.341-2.025-2.887-4.104-4.576-6.167 1.689-2.063 3.235-4.142 4.576-6.168 6.842 1.579 10.947 3.947 10.947 6.168 0 2.22-4.105 4.588-10.947 6.167z" fill="#758190"/></g></svg>