<svg id="Layer_1_1_" enable-background="new 0 0 96 96" height="512" viewBox="0 0 96 96" width="512" xmlns="http://www.w3.org/2000/svg"><path d="m76 27.267v-20.267h-12v9.867l-16-13.867-45 39h6v51h78v-51h6z" fill="#f9be3c"/><path d="m48 31c-4.247-1.82-7-5.996-7-10.616v-4.384h14v4.384c0 4.62-2.753 8.796-7 10.616z" fill="#63b2b9"/><path d="m76 87h-56c-2.209 0-4-1.791-4-4v-44h60v-1h4v45c0 2.209-1.791 4-4 4z" fill="#f68250"/><path d="m20 35h56v48h-56z" fill="#e6e6e6"/><path d="m48 35h28v48h-28z" fill="#d2d2d2"/><g fill="#8c645a"><path d="m71 42h-18c-.553 0-1-.448-1-1s.447-1 1-1h18c.553 0 1 .448 1 1s-.447 1-1 1z"/><path d="m71 46h-18c-.553 0-1-.448-1-1s.447-1 1-1h18c.553 0 1 .448 1 1s-.447 1-1 1z"/><path d="m71 50h-18c-.553 0-1-.448-1-1s.447-1 1-1h18c.553 0 1 .448 1 1s-.447 1-1 1z"/><path d="m71 54h-18c-.553 0-1-.448-1-1s.447-1 1-1h18c.553 0 1 .448 1 1s-.447 1-1 1z"/><path d="m71 58h-18c-.553 0-1-.448-1-1s.447-1 1-1h18c.553 0 1 .448 1 1s-.447 1-1 1z"/><path d="m71 62h-18c-.553 0-1-.448-1-1s.447-1 1-1h18c.553 0 1 .448 1 1s-.447 1-1 1z"/><path d="m71 66h-18c-.553 0-1-.448-1-1s.447-1 1-1h18c.553 0 1 .448 1 1s-.447 1-1 1z"/><path d="m71 70h-18c-.553 0-1-.448-1-1s.447-1 1-1h18c.553 0 1 .448 1 1s-.447 1-1 1z"/><path d="m71 74h-18c-.553 0-1-.448-1-1s.447-1 1-1h18c.553 0 1 .448 1 1s-.447 1-1 1z"/><path d="m59 78h-6c-.553 0-1-.448-1-1s.447-1 1-1h6c.553 0 1 .448 1 1s-.447 1-1 1z"/><path d="m43 42h-18c-.553 0-1-.448-1-1s.447-1 1-1h18c.553 0 1 .448 1 1s-.447 1-1 1z"/><path d="m43 46h-18c-.553 0-1-.448-1-1s.447-1 1-1h18c.553 0 1 .448 1 1s-.447 1-1 1z"/><path d="m43 50h-18c-.553 0-1-.448-1-1s.447-1 1-1h18c.553 0 1 .448 1 1s-.447 1-1 1z"/><path d="m43 54h-18c-.553 0-1-.448-1-1s.447-1 1-1h18c.553 0 1 .448 1 1s-.447 1-1 1z"/><path d="m43 58h-18c-.553 0-1-.448-1-1s.447-1 1-1h18c.553 0 1 .448 1 1s-.447 1-1 1z"/><path d="m43 62h-18c-.553 0-1-.448-1-1s.447-1 1-1h18c.553 0 1 .448 1 1s-.447 1-1 1z"/><path d="m43 66h-18c-.553 0-1-.448-1-1s.447-1 1-1h18c.553 0 1 .448 1 1s-.447 1-1 1z"/><path d="m43 70h-18c-.553 0-1-.448-1-1s.447-1 1-1h18c.553 0 1 .448 1 1s-.447 1-1 1z"/><path d="m43 74h-18c-.553 0-1-.448-1-1s.447-1 1-1h18c.553 0 1 .448 1 1s-.447 1-1 1z"/><path d="m43 78h-18c-.553 0-1-.448-1-1s.447-1 1-1h18c.553 0 1 .448 1 1s-.447 1-1 1z"/><circle cx="63" cy="77" r="1"/><circle cx="67" cy="77" r="1"/><circle cx="71" cy="77" r="1"/></g><path d="m48 32c-.553 0-1-.448-1-1v-15c0-.552.447-1 1-1s1 .448 1 1v15c0 .552-.447 1-1 1z" fill="#50a3ab"/><path d="m54.7 24h-13.4c-.553 0-1-.448-1-1s.447-1 1-1h13.4c.553 0 1 .448 1 1s-.447 1-1 1z" fill="#50a3ab"/></svg>