<svg height="512pt" viewBox="0 -45 512.00011 512" width="512pt" xmlns="http://www.w3.org/2000/svg"><path d="m221.667969 391.375c-13.820313 0-25.066407-11.242188-25.066407-25.0625 0-13.824219 11.246094-25.066406 25.066407-25.066406h269.445312v50.128906zm0 0" fill="#ddf5ff"/><path d="m474.402344 341.246094v22.976562c0 5.769532-4.675782 10.445313-10.441406 10.445313h-265.917969c3.445312 9.722656 12.734375 16.710937 23.625 16.710937h269.445312v-50.128906h-16.710937zm0 0" fill="#c1e9f4"/><path d="m221.667969 391.375c-13.675781 0-24.828125-11.011719-25.0625-24.632812-.234375-14.019532 11.609375-25.496094 25.632812-25.496094h279.316407c5.769531 0 10.445312-4.675782 10.445312-10.441406v-10.445313c0-5.769531-4.675781-10.445313-10.445312-10.445313h-279.886719c-31.144531 0-56.394531 25.25-56.394531 56.394532 0 31.148437 25.25 56.398437 56.394531 56.398437h279.886719c5.769531 0 10.445312-4.679687 10.445312-10.445312v-10.445313c0-5.765625-4.675781-10.441406-10.445312-10.441406zm0 0" fill="#ff6969"/><path d="m492.15625 309.917969v31.328125h9.398438c5.769531 0 10.445312-4.675782 10.445312-10.441406v-10.445313c0-5.769531-4.675781-10.445313-10.445312-10.445313h-9.398438zm0 0" fill="#ea4747"/><path d="m492.15625 422.707031h9.398438c5.769531 0 10.445312-4.675781 10.445312-10.445312v-10.441407c0-5.769531-4.675781-10.445312-10.445312-10.445312h-9.398438zm0 0" fill="#ea4747"/><path d="m221.667969 376.753906v28.199219c0 7.453125 7.582031 12.507813 14.460937 9.640625l10.601563-4.417969 9.414062 4.089844c6.898438 3 14.609375-2.054687 14.609375-9.578125v-27.933594c0-5.765625-4.675781-10.441406-10.445312-10.441406h-28.199219c-5.765625 0-10.441406 4.675781-10.441406 10.441406zm0 0" fill="#ffd664"/><path d="m221.667969 165.796875c-13.820313 0-25.066407-11.246094-25.066407-25.066406 0-13.820313 11.246094-25.066407 25.066407-25.066407h269.445312v50.128907h-269.445312zm0 0" fill="#ddf5ff"/><path d="m474.402344 115.664062v22.976563c0 5.769531-4.675782 10.445313-10.441406 10.445313h-265.917969c3.445312 9.722656 12.734375 16.710937 23.625 16.710937h269.445312v-50.128906h-16.710937zm0 0" fill="#c1e9f4"/><path d="m221.667969 165.796875c-13.675781 0-24.828125-11.011719-25.0625-24.636719-.234375-14.019531 11.609375-25.492187 25.632812-25.492187h279.316407c5.769531 0 10.445312-4.679688 10.445312-10.445313v-10.445312c0-5.765625-4.675781-10.441406-10.445312-10.441406h-279.886719c-31.144531 0-56.394531 25.246093-56.394531 56.394531 0 31.144531 25.25 56.394531 56.394531 56.394531h279.886719c5.769531 0 10.445312-4.675781 10.445312-10.445312v-10.445313c0-5.765625-4.675781-10.441406-10.445312-10.441406h-279.886719zm0 0" fill="#ff933b"/><path d="m492.15625 84.335938v31.332031h9.398438c5.769531 0 10.445312-4.679688 10.445312-10.445313v-10.445312c0-5.765625-4.675781-10.441406-10.445312-10.441406zm0 0" fill="#f27d27"/><path d="m492.15625 197.125h9.398438c5.769531 0 10.445312-4.675781 10.445312-10.445312v-10.441407c0-5.769531-4.675781-10.445312-10.445312-10.445312h-9.398438zm0 0" fill="#f27d27"/><path d="m221.667969 151.175781v28.195313c0 7.453125 7.582031 12.507812 14.460937 9.640625l10.601563-4.417969 9.414062 4.09375c6.898438 2.996094 14.609375-2.058594 14.609375-9.578125v-27.933594c0-5.769531-4.675781-10.445312-10.445312-10.445312h-28.199219c-5.765625 0-10.441406 4.675781-10.441406 10.445312zm0 0" fill="#ffd664"/><path d="m455.605469 278.585938c13.820312 0 25.066406-11.246094 25.066406-25.066407 0-13.820312-11.246094-25.0625-25.066406-25.0625h-269.445313v50.128907zm0 0" fill="#ddf5ff"/><path d="m455.605469 228.457031h-.394531c.929687 2.613281 1.4375 5.425781 1.4375 8.355469 0 13.820312-11.242188 25.0625-25.0625 25.0625h-245.425782v16.710938h269.445313c13.820312 0 25.066406-11.242188 25.066406-25.066407 0-13.820312-11.246094-25.0625-25.066406-25.0625zm0 0" fill="#c1e9f4"/><path d="m455.605469 278.585938c13.675781 0 24.828125-11.011719 25.0625-24.632813.234375-14.023437-11.609375-25.496094-25.632813-25.496094h-279.320312c-5.765625 0-10.441406-4.675781-10.441406-10.445312v-10.445313c0-5.765625 4.675781-10.441406 10.441406-10.441406h279.890625c31.144531 0 56.394531 25.25 56.394531 56.394531s-25.25 56.394531-56.394531 56.394531h-279.890625c-5.765625 0-10.441406-4.675781-10.441406-10.445312v-10.441406c0-5.769532 4.675781-10.445313 10.441406-10.445313h279.890625zm0 0" fill="#8db0ff"/><path d="m455.605469 197.125h-17.753907c31.144532 0 56.394532 25.25 56.394532 56.394531 0 31.148438-25.25 56.394531-56.394532 56.394531h17.753907c31.144531 0 56.394531-25.246093 56.394531-56.394531 0-31.144531-25.25-56.394531-56.394531-56.394531zm0 0" fill="#669af7"/><path d="m455.605469 263.964844v28.199218c0 7.449219-7.582031 12.503907-14.460938 9.636719l-10.601562-4.417969-9.414063 4.09375c-6.898437 3-14.609375-2.054687-14.609375-9.578124v-27.933594c0-5.769532 4.675781-10.445313 10.445313-10.445313h28.199218c5.765626 0 10.441407 4.675781 10.441407 10.445313zm0 0" fill="#ffd664"/><path d="m96.082031 203.738281-61.269531 13.132813-34.578125-161.347656c-1.210937-5.640626 2.382813-11.191407 8.023437-12.398438l40.847657-8.753906c5.636719-1.210938 11.191406 2.382812 12.398437 8.019531zm0 0" fill="#8db0ff"/><path d="m44 35.464844 31.511719 147.046875c1.210937 5.640625-2.382813 11.191406-8.023438 12.402343l-35.738281 7.65625 3.0625 14.296876 61.269531-13.128907-34.578125-161.347656c-1.207031-5.636719-6.761718-9.230469-12.398437-8.019531zm0 0" fill="#669af7"/><path d="m131.621094 379.351562-15.132813 31.761719c-2.789062 5.855469-10.367187 7.480469-15.3125 3.28125l-26.816406-22.773437c-1.664063-1.410156-2.808594-3.328125-3.265625-5.460938l-36.28125-169.292968 61.269531-13.128907 36.28125 169.292969c.457031 2.128906.195313 4.351562-.742187 6.320312zm0 0" fill="#8db0ff"/><path d="m80.765625 207.019531 34.003906 158.6875c1.933594 9.007813.832031 18.402344-3.132812 26.71875l-10.460938 21.964844v.003906c4.945313 4.195313 12.523438 2.574219 15.3125-3.285156l15.132813-31.761719c.9375-1.964844 1.199218-4.1875.742187-6.316406l-36.28125-169.292969zm0 0" fill="#669af7"/><path d="m47.0625 34.808594-36.761719 7.875-5.691406-26.546875c-1.207031-5.640625 2.382813-11.195313 8.023437-12.402344l16.339844-3.5c5.640625-1.210937 11.191406 2.382813 12.398438 8.023437zm0 0" fill="#ffd664"/><path d="m25.90625.890625 7.878906 36.761719 13.277344-2.84375-5.691406-26.550782c-1.207032-5.640624-6.761719-9.234374-12.398438-8.023437zm0 0" fill="#f9c646"/><path d="m4.824219 76.96875 61.269531-13.128906 7.441406 34.71875-61.273437 13.128906zm0 0" fill="#ffd664"/><path d="m50.78125 67.121094 2.847656 13.273437c1.207032 5.640625-2.386718 11.191407-8.023437 12.402344l-35.742188 7.660156 2.40625 11.230469 61.273438-13.128906-7.441407-34.722656zm0 0" fill="#f9c646"/><path d="m57.777344 182.394531c-3.613282 0-6.859375-2.515625-7.648438-6.191406l-22.320312-104.160156c-.910156-4.230469 1.785156-8.394531 6.015625-9.296875 4.226562-.917969 8.394531 1.785156 9.300781 6.015625l22.320312 104.160156c.90625 4.226563-1.789062 8.394531-6.015624 9.300781-.554688.117188-1.105469.171875-1.652344.171875zm0 0" fill="#636363"/></svg>