<svg xmlns="http://www.w3.org/2000/svg" version="1.0" width="512" height="512" preserveAspectRatio="xMidYMid meet"><rect id="backgroundrect" width="100%" height="100%" x="0" y="0" fill="none" stroke="none"/>
<metadata>
Created by potrace 1.15, written by Peter Selinger 2001-2017
</metadata>

<g class="currentLayer" style=""><title>Layer 1</title>
<path d="M10.600000157952309,132.19999434053898 c-3.6000000536441803,5.600000083446503 -4.800000071525574,35.90000053495169 -2.1000000312924385,52.50000078231096 c2.7000000402331352,16.50000024586916 9.600000143051147,34.30000051110983 18.400000274181366,47.300000704824924 c2.7000000402331352,3.9000000581145287 3.1000000461935997,5.4000000804662704 3.1000000461935997,11.300000168383121 c0,9.100000135600567 3.400000050663948,25.300000376999378 7.200000107288361,34.70000051707029 c4.300000064074993,10.400000154972076 12.700000189244747,22.800000339746475 20.200000301003456,29.700000442564487 c4.100000061094761,3.8000000566244125 7.600000113248825,8.200000122189522 10.000000149011612,12.800000190734863 c10.400000154972076,19.200000286102295 28.200000420212746,36.90000054985285 48.00000071525574,47.60000070929527 c21.1000003144145,11.400000169873238 56.00000083446503,16.900000251829624 77.60000115633011,12.400000184774399 c22.000000327825546,-4.6000000685453415 39.40000058710575,-18.100000269711018 49.0000007301569,-38.000000566244125 c5.800000086426735,-11.900000177323818 7.400000110268593,-18.600000277161598 7.400000110268593,-29.500000439584255 c0.10000000149011612,-15.500000230967999 -5.600000083446503,-28.200000420212746 -17.50000026077032,-39.60000059008598 c-9.700000144541264,-9.300000138580799 -19.900000296533108,-15.100000225007534 -35.400000527501106,-20.40000030398369 c-53.700000800192356,-18.200000271201134 -114.60000170767307,-58.80000087618828 -165.50000246614218,-110.4000016450882 c-10.900000162422657,-11.000000163912773 -12.90000019222498,-12.600000187754631 -15.70000023394823,-12.600000187754631 c-2.3000000342726707,0 -3.7000000551342964,0.7000000104308128 -4.700000070035458,2.2000000327825546 zm23.600000351667404,32.30000048130751 c48.300000719726086,46.500000692903996 104.30000155419111,82.20000122487545 159.60000237822533,101.7000015154481 c12.000000178813934,4.200000062584877 20.40000030398369,9.100000135600567 28.200000420212746,16.50000024586916 c8.00000011920929,7.500000111758709 12.700000189244747,15.600000232458115 13.800000205636024,24.2000003606081 c2.9000000432133675,21.000000312924385 -11.000000163912773,46.10000068694353 -30.90000046044588,55.70000082999468 c-10.200000151991844,5.000000074505806 -20.10000029951334,6.800000101327896 -34.30000051110983,6.100000090897083 c-28.400000423192978,-1.4000000208616257 -51.60000076889992,-10.30000015348196 -70.30000104755163,-27.10000040382147 c-5.900000087916851,-5.300000078976154 -13.800000205636024,-14.400000214576721 -13.100000195205212,-15.100000225007534 c0.30000000447034836,-0.30000000447034836 3.1000000461935997,0.4000000059604645 6.3000000938773155,1.5000000223517418 c8.900000132620335,3.0000000447034836 21.200000315904617,5.100000075995922 32.30000048130751,5.300000078976154 c11.400000169873238,0.20000000298023224 14.200000211596489,-1.1000000163912773 14.200000211596489,-6.500000096857548 c0,-5.300000078976154 -2.9000000432133675,-6.800000101327896 -13.100000195205212,-6.800000101327896 c-10.900000162422657,0 -26.600000396370888,-3.0000000447034836 -36.700000546872616,-7.000000104308128 c-23.300000347197056,-9.400000140070915 -38.90000057965517,-27.80000041425228 -44.60000066459179,-52.80000078678131 c-0.9000000134110451,-3.9000000581145287 -1.600000023841858,-7.400000110268593 -1.600000023841858,-7.700000114738941 c0,-0.4000000059604645 2.8000000417232513,1.5000000223517418 6.3000000938773155,4.300000064074993 c10.500000156462193,8.200000122189522 18.500000275671482,13.300000198185444 30.100000448524952,18.80000028014183 c14.900000222027302,7.000000104308128 34.80000051856041,13.40000019967556 42.900000639259815,13.600000202655792 c5.600000083446503,0.20000000298023224 9.00000013411045,-6.800000101327896 4.90000007301569,-10.500000156462193 c-1.0000000149011612,-0.9000000134110451 -6.900000102818012,-3.0000000447034836 -13.200000196695328,-4.6000000685453415 c-49.20000073313713,-12.700000189244747 -81.80000121891499,-42.70000063627958 -92.00000137090683,-84.20000125467777 c-2.1000000312924385,-8.600000128149986 -4.100000061094761,-37.90000056475401 -2.500000037252903,-37.90000056475401 c0.4000000059604645,0 6.600000098347664,5.600000083446503 13.700000204145908,12.500000186264515 z" id="svg_2" stroke="#336699" stroke-opacity="1" class="" fill="#ce1e4a" fill-opacity="1"/>
<path d="M135.60000202059746,282.3999965786934 c-4.700000070035458,4.6000000685453415 -2.2000000327825546,10.30000015348196 5.000000074505806,11.300000168383121 c10.400000154972076,1.4000000208616257 11.500000171363354,-11.400000169873238 1.2000000178813934,-13.300000198185444 c-3.1000000461935997,-0.5000000074505806 -4.100000061094761,-0.20000000298023224 -6.200000092387199,2.0000000298023224 z" id="svg_3" stroke="#336699" stroke-opacity="1" class="" fill="#ce1e4a" fill-opacity="1"/>
<path d="M485.40000723302364,138.19999442994595 c-35.400000527501106,36.700000546872616 -74.40000110864639,67.10000099986792 -115.400001719594,90.00000134110451 c-17.200000256299973,9.600000143051147 -32.100000478327274,16.400000244379044 -53.40000079572201,24.50000036507845 c-19.30000028759241,7.200000107288361 -30.000000447034836,13.600000202655792 -38.800000578165054,23.20000034570694 c-16.100000239908695,17.400000259280205 -19.60000029206276,37.10000055283308 -10.700000159442425,60.30000089854002 c8.00000011920929,20.700000308454037 23.800000354647636,35.80000053346157 44.40000066161156,42.400000631809235 c19.500000290572643,6.3000000938773155 52.60000078380108,3.500000052154064 76.80000114440918,-6.600000098347664 c23.100000344216824,-9.600000143051147 46.10000068694353,-31.20000046491623 57.700000859797,-54.000000804662704 c1.2000000178813934,-2.500000037252903 4.90000007301569,-6.900000102818012 8.200000122189522,-9.900000147521496 c15.800000235438347,-14.300000213086605 26.00000038743019,-37.40000055730343 27.500000409781933,-61.60000091791153 c0.5000000074505806,-9.300000138580799 0.800000011920929,-10.400000154972076 4.300000064074993,-16.00000023841858 c9.200000137090683,-14.800000220537186 14.900000222027302,-29.700000442564487 17.50000026077032,-45.500000678002834 c2.7000000402331352,-16.900000251829624 1.5000000223517418,-47.20000070333481 -2.1000000312924385,-52.80000078678131 c-1.0000000149011612,-1.5000000223517418 -2.400000035762787,-2.2000000327825546 -4.700000070035458,-2.2000000327825546 c-2.9000000432133675,0 -4.500000067055225,1.2000000178813934 -11.300000168383121,8.200000122189522 zm6.600000098347664,23.500000350177288 c-0.10000000149011612,24.600000366568565 -7.600000113248825,49.20000073313713 -20.300000302493572,65.90000098198652 c-6.200000092387199,8.200000122189522 -17.900000266730785,19.10000028461218 -26.900000400841236,25.200000375509262 c-14.300000213086605,9.700000144541264 -36.700000546872616,19.30000028759241 -51.700000770390034,22.300000332295895 c-3.400000050663948,0.6000000089406967 -7.300000108778477,2.0000000298023224 -8.600000128149986,3.1000000461935997 c-4.90000007301569,3.9000000581145287 -1.9000000283122063,11.200000166893005 4.500000067055225,11.000000163912773 c7.700000114738941,-0.20000000298023224 32.00000047683716,-8.200000122189522 45.500000678002834,-14.900000222027302 c8.50000012665987,-4.300000064074993 21.300000317394733,-12.500000186264515 27.900000415742397,-18.100000269711018 c2.8000000417232513,-2.3000000342726707 5.100000075995922,-4.000000059604645 5.300000078976154,-3.8000000566244125 c0.7000000104308128,0.7000000104308128 -3.0000000447034836,14.900000222027302 -5.4000000804662704,20.800000309944153 c-11.300000168383121,28.000000417232513 -38.000000566244125,44.60000066459179 -74.60000111162663,46.500000692903996 c-11.000000163912773,0.6000000089406967 -11.900000177323818,0.800000011920929 -13.700000204145908,3.1000000461935997 c-2.600000038743019,3.200000047683716 -2.500000037252903,5.000000074505806 0.20000000298023224,7.900000117719173 c2.0000000298023224,2.1000000312924385 3.0000000447034836,2.3000000342726707 12.10000018030405,2.3000000342726707 c9.900000147521496,0 25.100000374019146,-2.500000037252903 33.5000004991889,-5.4000000804662704 c2.8000000417232513,-1.0000000149011612 4.200000062584877,-1.1000000163912773 4.200000062584877,-0.4000000059604645 c0,2.2000000327825546 -16.800000250339508,18.200000271201134 -24.70000036805868,23.500000350177288 c-21.700000323355198,14.400000214576721 -55.60000082850456,21.700000323355198 -78.50000116974115,16.800000250339508 c-23.100000344216824,-4.90000007301569 -40.80000060796738,-24.100000359117985 -44.80000066757202,-48.800000727176666 c-2.7000000402331352,-16.800000250339508 6.900000102818012,-34.00000050663948 24.900000371038914,-44.700000666081905 c3.6000000536441803,-2.2000000327825546 13.100000195205212,-6.3000000938773155 21.1000003144145,-9.300000138580799 c38.90000057965517,-14.500000216066837 71.3000010624528,-32.50000048428774 108.00000160932541,-59.80000089108944 c19.60000029206276,-14.70000021904707 32.9000004902482,-25.900000385940075 49.0000007301569,-41.600000619888306 c6.3000000938773155,-6.200000092387199 11.800000175833702,-11.300000168383121 12.300000183284283,-11.300000168383121 c0.4000000059604645,0 0.7000000104308128,4.400000065565109 0.7000000104308128,9.700000144541264 z" id="svg_4" stroke="#336699" stroke-opacity="1" class="" fill="#4e78b1" fill-opacity="1"/>
<path d="M368.30000548809767,280.6999965533614 c-5.000000074505806,1.0000000149011612 -6.900000102818012,7.700000114738941 -3.200000047683716,11.400000169873238 c4.200000062584877,4.200000062584877 13.90000020712614,0.5000000074505806 13.90000020712614,-5.300000078976154 c0,-2.500000037252903 -4.400000065565109,-6.800000101327896 -6.70000009983778,-6.70000009983778 c-1.0000000149011612,0.10000000149011612 -2.8000000417232513,0.4000000059604645 -4.000000059604645,0.6000000089406967 z" id="svg_5" stroke="#336699" stroke-opacity="1" class="" fill="#4e78b1" fill-opacity="1"/>
<path fill="#ffffff" fill-opacity="1" stroke="#7c7e7f" stroke-opacity="1" stroke-width="10" stroke-dasharray="none" stroke-linejoin="miter" stroke-linecap="butt" stroke-dashoffset="" fill-rule="nonzero" opacity="1" marker-start="" marker-mid="" marker-end="" d="M186.52631664276123,174.26315879821777 C186.52631664276123,133.3791808976653 218.9710680239767,100.26315879821777 259.02631664276123,100.26315879821777 C299.08156526154573,100.26315879821777 331.52631664276123,133.3791808976653 331.52631664276123,174.26315879821777 C331.52631664276123,215.14713669877025 299.08156526154573,248.26315879821777 259.02631664276123,248.26315879821777 C218.9710680239767,248.26315879821777 186.52631664276123,215.14713669877025 186.52631664276123,174.26315879821777 z" id="svg_1" class=""/></g></svg>